<svg xmlns="http://www.w3.org/2000/svg" viewBox="0 0 1280 720" style="background-color: #E5E5E5;">
<style>
.grid {
    stroke-width: 1px;
    stroke-dasharray: 4, 6;
    stroke-dashoffset: 2;
    stroke: white;
}
</style>
    <path class="grid" d="M0,0l0,720m10,-720l0,720m10,-720l0,720m10,-720l0,720m10,-720l0,720m10,-720l0,720m10,-720l0,720m10,-720l0,720m10,-720l0,720m10,-720l0,720m10,-720l0,720m10,-720l0,720m10,-720l0,720m10,-720l0,720m10,-720l0,720m10,-720l0,720m10,-720l0,720m10,-720l0,720m10,-720l0,720m10,-720l0,720m10,-720l0,720m10,-720l0,720m10,-720l0,720m10,-720l0,720m10,-720l0,720m10,-720l0,720m10,-720l0,720m10,-720l0,720m10,-720l0,720m10,-720l0,720m10,-720l0,720m10,-720l0,720m10,-720l0,720m10,-720l0,720m10,-720l0,720m10,-720l0,720m10,-720l0,720m10,-720l0,720m10,-720l0,720m10,-720l0,720m10,-720l0,720m10,-720l0,720m10,-720l0,720m10,-720l0,720m10,-720l0,720m10,-720l0,720m10,-720l0,720m10,-720l0,720m10,-720l0,720m10,-720l0,720m10,-720l0,720m10,-720l0,720m10,-720l0,720m10,-720l0,720m10,-720l0,720m10,-720l0,720m10,-720l0,720m10,-720l0,720m10,-720l0,720m10,-720l0,720m10,-720l0,720m10,-720l0,720m10,-720l0,720m10,-720l0,720m10,-720l0,720m10,-720l0,720m10,-720l0,720m10,-720l0,720m10,-720l0,720m10,-720l0,720m10,-720l0,720m10,-720l0,720m10,-720l0,720m10,-720l0,720m10,-720l0,720m10,-720l0,720m10,-720l0,720m10,-720l0,720m10,-720l0,720m10,-720l0,720m10,-720l0,720m10,-720l0,720m10,-720l0,720m10,-720l0,720m10,-720l0,720m10,-720l0,720m10,-720l0,720m10,-720l0,720m10,-720l0,720m10,-720l0,720m10,-720l0,720m10,-720l0,720m10,-720l0,720m10,-720l0,720m10,-720l0,720m10,-720l0,720m10,-720l0,720m10,-720l0,720m10,-720l0,720m10,-720l0,720m10,-720l0,720m10,-720l0,720m10,-720l0,720m10,-720l0,720m10,-720l0,720m10,-720l0,720m10,-720l0,720m10,-720l0,720m10,-720l0,720m10,-720l0,720m10,-720l0,720m10,-720l0,720m10,-720l0,720m10,-720l0,720m10,-720l0,720m10,-720l0,720m10,-720l0,720m10,-720l0,720m10,-720l0,720m10,-720l0,720m10,-720l0,720m10,-720l0,720m10,-720l0,720m10,-720l0,720m10,-720l0,720m10,-720l0,720m10,-720l0,720m10,-720l0,720m10,-720l0,720m10,-720"/>
    <path class="grid" d="M0,00l1280,0m-1280,10l1280,0m-1280,10l1280,0m-1280,10l1280,0m-1280,10l1280,0m-1280,10l1280,0m-1280,10l1280,0m-1280,10l1280,0m-1280,10l1280,0m-1280,10l1280,0m-1280,10l1280,0m-1280,10l1280,0m-1280,10l1280,0m-1280,10l1280,0m-1280,10l1280,0m-1280,10l1280,0m-1280,10l1280,0m-1280,10l1280,0m-1280,10l1280,0m-1280,10l1280,0m-1280,10l1280,0m-1280,10l1280,0m-1280,10l1280,0m-1280,10l1280,0m-1280,10l1280,0m-1280,10l1280,0m-1280,10l1280,0m-1280,10l1280,0m-1280,10l1280,0m-1280,10l1280,0m-1280,10l1280,0m-1280,10l1280,0m-1280,10l1280,0m-1280,10l1280,0m-1280,10l1280,0m-1280,10l1280,0m-1280,10l1280,0m-1280,10l1280,0m-1280,10l1280,0m-1280,10l1280,0m-1280,10l1280,0m-1280,10l1280,0m-1280,10l1280,0m-1280,10l1280,0m-1280,10l1280,0m-1280,10l1280,0m-1280,10l1280,0m-1280,10l1280,0m-1280,10l1280,0m-1280,10l1280,0m-1280,10l1280,0m-1280,10l1280,0m-1280,10l1280,0m-1280,10l1280,0m-1280,10l1280,0m-1280,10l1280,0m-1280,10l1280,0m-1280,10l1280,0m-1280,10l1280,0m-1280,10l1280,0m-1280,10l1280,0m-1280,10l1280,0m-1280,10l1280,0m-1280,10l1280,0m-1280,10l1280,0m-1280,10l1280,0m-1280,10l1280,0m-1280,10l1280,0m-1280,10l1280,0m-1280,10l1280,0m-1280,10l1280,0m-1280,10l1280,0m-1280,10l1280,0m-1280,10"/>
</svg>