<svg id="Layer_1" data-name="Layer 1" xmlns="http://www.w3.org/2000/svg" viewBox="0 0 100 100"><defs><path class="cls-1" d="M49.65,88.5a38,38,0,1,1,38-38A38.05,38.05,0,0,1,49.65,88.5Zm0-72.73A34.72,34.72,0,1,0,84.37,50.49,34.76,34.76,0,0,0,49.65,15.77Z"/><path class="cls-1" d="M66.1,41.21H33.2a1.1,1.1,0,0,1,0-2.19H66.1a1.1,1.1,0,0,1,0,2.19Z"/><path class="cls-1" d="M66.1,52.38H33.2a1.1,1.1,0,0,1,0-2.19H66.1a1.1,1.1,0,0,1,0,2.19Z"/><path class="cls-1" d="M66.1,63.55H33.2a1.1,1.1,0,0,1,0-2.19H66.1a1.1,1.1,0,0,1,0,2.19Z"/></svg>