<svg id="Layer_1" data-name="Layer 1" xmlns="http://www.w3.org/2000/svg" viewBox="0 0 100 100"><path class="cls-1" d="M68.26,31.71h-35a1.78,1.78,0,0,0-1.78,1.94l3.78,44.48A1.78,1.78,0,0,0,37,79.76H64.49a1.78,1.78,0,0,0,1.78-1.63L70,33.65a1.78,1.78,0,0,0-1.78-1.94ZM62.85,76.19H38.64L35.17,35.28H66.32Z"/><path class="cls-1" d="M69.17,26.34H52.53V24.23a1.78,1.78,0,0,0-3.57,0v2.11H32.32a1.78,1.78,0,0,0,0,3.57H69.17a1.78,1.78,0,1,0,0-3.57Z"/><path class="cls-1" d="M41.31,72a1.78,1.78,0,0,0,1.78,1.63h.16a1.78,1.78,0,0,0,1.62-1.93L42.18,40.53a1.78,1.78,0,0,0-3.56.31Z"/><path class="cls-1" d="M58.24,73.67h.16A1.78,1.78,0,0,0,60.17,72l2.68-31.22a1.78,1.78,0,1,0-3.56-.31L56.62,71.74A1.78,1.78,0,0,0,58.24,73.67Z"/><path class="cls-1" d="M50.74,73.68a1.79,1.79,0,0,0,1.78-1.78V40.61a1.78,1.78,0,1,0-3.57,0V71.89A1.79,1.79,0,0,0,50.74,73.68Z"/></svg>