<svg id="Layer_1" data-name="Layer 1" xmlns="http://www.w3.org/2000/svg" viewBox="0 0 100 100"><path class="cls-1" d="M77,40.39H69.34a1.7,1.7,0,0,0,.08-.4V35.23a1.79,1.79,0,0,0-1.78-1.78H40.86l-1-1.53a1.78,1.78,0,0,0-1.51-.84H29.66a1.78,1.78,0,0,0-1.57.93l-.79,1.44h-3.9a1.79,1.79,0,0,0-1.78,1.78v34.1c0,.05,0,.09,0,.14a1.69,1.69,0,0,0,.06.28,1.72,1.72,0,0,0,.19.48s0,.1.06.14.07,0,.09.08a1.75,1.75,0,0,0,.41.36,1.71,1.71,0,0,0,.19.13,1.75,1.75,0,0,0,.76.18H67.63a1.76,1.76,0,0,0,.63-.13l.18-.09a1.75,1.75,0,0,0,.36-.24l.15-.14a1.75,1.75,0,0,0,.25-.37,1.67,1.67,0,0,0,.09-.17l0-.06,9.42-27.16A1.79,1.79,0,0,0,77,40.39ZM25.2,37h3.17a1.78,1.78,0,0,0,1.57-.93l.79-1.44H37.4l1,1.53a1.78,1.78,0,0,0,1.51.84h26v3a1.7,1.7,0,0,0,.08.4H32.83a1.78,1.78,0,0,0-1.69,1.2L25.2,58.74ZM66.36,67.55H25.92L34.1,44H74.54Z"/></svg>