<svg id="Layer_1" data-name="Layer 1" xmlns="http://www.w3.org/2000/svg" viewBox="0 0 100 100"><path class="cls-1" d="M50.13,88.5a38,38,0,1,1,38-38A38.05,38.05,0,0,1,50.13,88.5Zm0-72.73A34.72,34.72,0,1,0,84.85,50.49,34.76,34.76,0,0,0,50.13,15.77Z"/><path class="cls-1" d="M46.4,48H31.72a1.1,1.1,0,0,1-1.1-1.1V32.22a1.1,1.1,0,0,1,1.1-1.1H46.4a1.1,1.1,0,0,1,1.1,1.1V46.89A1.1,1.1,0,0,1,46.4,48ZM32.82,45.79H45.3V33.31H32.82Z"/><path class="cls-1" d="M68.54,48H53.87a1.1,1.1,0,0,1-1.1-1.1V32.22a1.1,1.1,0,0,1,1.1-1.1H68.54a1.1,1.1,0,0,1,1.1,1.1V46.89A1.1,1.1,0,0,1,68.54,48ZM55,45.79H67.44V33.31H55Z"/><path class="cls-1" d="M46.4,69.86H31.72a1.1,1.1,0,0,1-1.1-1.1V54.09a1.1,1.1,0,0,1,1.1-1.1H46.4a1.1,1.1,0,0,1,1.1,1.1V68.76A1.1,1.1,0,0,1,46.4,69.86ZM32.82,67.67H45.3V55.19H32.82Z"/><path class="cls-1" d="M68.54,69.86H53.87a1.1,1.1,0,0,1-1.1-1.1V54.09a1.1,1.1,0,0,1,1.1-1.1H68.54a1.1,1.1,0,0,1,1.1,1.1V68.76A1.1,1.1,0,0,1,68.54,69.86ZM55,67.67H67.44V55.19H55Z"/></svg>