    <svg 
      id="videoicon" 
      data-name="VideoIcon" 
      xmlns="http://www.w3.org/2000/svg" 
      viewBox="0 0 100 100"
    >
      <path class="cls-1" d="M42,70.5a1.12,1.12,0,0,1-.49-.11,1.1,1.1,0,0,1-.61-1V31.58a1.1,1.1,0,0,1,1.75-.88L67.74,49.5a1.1,1.1,0,0,1,0,1.75l-25.07,19A1.09,1.09,0,0,1,42,70.5Zm1.1-36.72V67.19L65.27,50.39Z"/>
      <path class="cls-1" d="M50.17,88.5a38,38,0,1,1,38-38A38.05,38.05,0,0,1,50.17,88.5Zm0-72.73A34.72,34.72,0,1,0,84.89,50.49,34.76,34.76,0,0,0,50.17,15.77Z"/>
    </svg>
