<svg id="Layer_1" data-name="Layer 1" xmlns="http://www.w3.org/2000/svg" viewBox="0 0 100 100"><path class="cls-1" d="M49.46,12.48a38,38,0,1,0,38,38A38.05,38.05,0,0,0,49.46,12.48Zm0,72.73A34.72,34.72,0,1,1,84.18,50.49,34.76,34.76,0,0,1,49.46,85.21Z"/><path class="cls-1" d="M36.93,48.43a7.05,7.05,0,1,0-7.05-7.05A7.06,7.06,0,0,0,36.93,48.43Zm0-11.91a4.86,4.86,0,1,1-4.86,4.86A4.87,4.87,0,0,1,36.93,36.52Z"/><path class="cls-1" d="M78.5,58.7,65.89,45a1.1,1.1,0,0,0-1.54-.07L52.83,55.34l-4.48-4.87a1.1,1.1,0,0,0-1.54-.07L26.8,68.5a1.1,1.1,0,0,0,1.47,1.63l19.2-17.36L59.35,65.67A1.1,1.1,0,0,0,61,64.18L54.31,57,65,47.28,76.89,60.19A1.1,1.1,0,0,0,78.5,58.7Z"/></svg>