<svg id="Layer_1" data-name="Layer 1" xmlns="http://www.w3.org/2000/svg" viewBox="0 0 100 100"><path class="cls-1" d="M89.89,82.38,51.35,15.85a1.5,1.5,0,0,0-2.6,0L10.22,82.38a1.5,1.5,0,0,0,1.3,2.25H88.59a1.5,1.5,0,0,0,1.3-2.25Zm-75.77-.75,35.94-62L86,81.64Z"/><path class="cls-1" d="M46.93,41.09a.5.5,0,0,0-.14.37L47,47.68v0L48,62a.5.5,0,0,0,.5.47H53a.5.5,0,0,0,.5-.47l1-14.35.23-6.23a.5.5,0,0,0-.5-.52H47.29A.5.5,0,0,0,46.93,41.09Z"/><path class="cls-1" d="M50.76,64.21a4.46,4.46,0,0,0-3.33,1.39,4.82,4.82,0,0,0-1.33,3.46,4.76,4.76,0,0,0,1.33,3.42,4.68,4.68,0,0,0,6.67,0,4.76,4.76,0,0,0,1.33-3.42,4.82,4.82,0,0,0-1.33-3.46A4.46,4.46,0,0,0,50.76,64.21Z"/></svg>