<svg width="100" height="100" xmlns="http://www.w3.org/2000/svg">

 <g>
  <title>background</title>
  <rect fill="none" id="canvas_background" height="402" width="582" y="-1" x="-1"/>
 </g>
 <g>
  <title>Layer 1</title>
  <path id="svg_1" d="m50.49,22.85a28.25,28.25 0 1 0 28.25,28.25a28.29,28.29 0 0 0 -28.25,-28.25zm0,52.94a24.69,24.69 0 1 1 24.68,-24.69a24.71,24.71 0 0 1 -24.68,24.69z" class="cls-1"/>
  <path transform="rotate(-45 50.489997863769524,51.09999847412109) " id="svg_2" d="m64.47,49.31l-12.2,0l0,-12.19a1.78,1.78 0 1 0 -3.57,0l0,12.19l-12.19,0a1.78,1.78 0 0 0 0,3.57l12.19,0l0,12.2a1.78,1.78 0 0 0 3.57,0l0,-12.2l12.2,0a1.78,1.78 0 0 0 0,-3.57z" class="cls-1"/>
 </g>
</svg>