<?xml version="1.0" encoding="UTF-8" standalone="no"?>
<!-- Created with Inkscape (http://www.inkscape.org/) -->

<svg
   xmlns:dc="http://purl.org/dc/elements/1.1/"
   xmlns:cc="http://creativecommons.org/ns#"
   xmlns:rdf="http://www.w3.org/1999/02/22-rdf-syntax-ns#"
   xmlns:svg="http://www.w3.org/2000/svg"
   xmlns="http://www.w3.org/2000/svg"
   xmlns:xlink="http://www.w3.org/1999/xlink"
   xmlns:sodipodi="http://sodipodi.sourceforge.net/DTD/sodipodi-0.dtd"
   xmlns:inkscape="http://www.inkscape.org/namespaces/inkscape"
   width="613"
   height="133.99951"
   id="svg2"
   version="1.1"
   inkscape:version="0.47 r22583">
  <g
     inkscape:label="Layer 1"
     inkscape:groupmode="layer"
     id="layer1"
     transform="translate(-167.31632,-421.51753)">
    <path
       id="path3117"
       d="m 454.72099,455.66116 -12.18159,0 -18.1957,41.3859 -8.7041,-41.3859 -12.57949,0 -17.55325,65.79053 11.54328,0 12.18159,-45.72552 0.16165,0 9.49161,45.72552 5.45871,0 20.01527,-44.46964 0.15751,0 1.65792,44.46964 11.07493,0 z m 51.41634,0 -33.69729,0 -7.59328,65.79053 39.471,0 1.26416,-10.99203 -27.99817,0 1.97707,-17.27141 19.53448,0 1.27246,-11.00032 -19.54692,0 1.82372,-15.53474 22.2286,0 z m 12.26448,0 -7.51453,65.79053 27.84896,0 c 14.39077,0 25.46569,-14.17939 25.46569,-33.7636 0,-14.27886 -6.32497,-32.02693 -27.84896,-32.02693 z m 10.19623,10.99203 5.54161,0 c 11.86243,0 18.1957,9.27194 18.1957,20.84424 0,11.38164 -5.22246,22.96223 -17.95116,22.96223 l -10.76407,0 z m 60.99913,-10.99203 -11.47697,0 -7.58915,65.79053 11.46869,0 z m 37.73432,-0.86626 -12.18988,0 -26.419,66.65679 12.65824,0 5.22661,-14.37005 16.76574,0 1.65792,14.37005 11.78784,0 z m -7.91658,13.78977 0.16165,0 2.84748,29.138 -12.50488,0 z m 61.15249,-8.57975 c -4.6712,-3.38216 -10.20866,-5.21002 -15.42698,-5.21002 -10.91742,0 -18.98321,8.48856 -18.98321,19.87435 0,17.26312 19.85362,18.519 19.85362,29.42399 0,4.33546 -3.08788,7.23268 -7.75493,7.23268 -4.50541,0 -10.91328,-2.89722 -15.26533,-6.75603 l -1.74081,11.47697 c 4.82455,3.86296 10.51952,6.27938 18.3532,6.27938 12.09869,0 18.27446,-9.55378 18.27446,-20.16448 0,-18.42782 -19.85777,-19.67955 -19.85777,-29.13385 0,-4.33547 3.39874,-7.23269 7.58914,-7.23269 4.11165,0 9.8978,2.69827 13.37115,5.78615 z m 45.55972,-4.34376 -33.69728,0 -7.59329,65.79053 39.47514,0 1.26003,-10.99203 -28.00232,0 1.97707,-17.27141 19.54277,0 1.26416,-11.00032 -19.53862,0 1.81957,-15.53474 22.23275,0 z m 54.18921,0 -46.11513,0 -1.27245,10.99203 17.08904,0 -6.32498,54.7985 11.46454,0 6.33327,-54.7985 17.5574,0 z"
       style="fill:#a7a5a5;fill-rule:nonzero;stroke:none" />
    <path
       id="path3121"
       d="m 204.2963,494.26378 c 6.37471,0 11.55572,-5.17686 11.55572,-11.54743 0,-6.36642 -5.18101,-11.55158 -11.55572,-11.55158 -6.36228,0 -11.54744,5.18516 -11.54744,11.55158 0,6.37057 5.18516,11.54743 11.54744,11.54743 m -10.85526,14.69335 -1.00304,0.23625 c -4.11994,3.7096 -10.4159,3.54381 -14.29129,-0.33158 -3.9127,-3.92099 -4.03705,-10.17551 -0.3233,-14.27472 l 0.24454,-0.9989 -0.88284,-0.54297 c -5.53332,-0.28599 -9.86879,-4.85771 -9.86879,-10.32886 0,-5.54575 4.33547,-10.05945 9.86879,-10.32471 l 0.88284,-0.53883 -0.24868,-1.00304 c -3.70961,-4.12409 -3.54381,-10.41176 0.32744,-14.28715 3.92513,-3.92099 10.1755,-4.03705 14.27886,-0.31915 l 0.9989,0.2404 c 0.32329,-0.17409 0.52639,-0.50982 0.53882,-0.88699 0.29014,-5.52918 4.86186,-9.86464 10.33301,-9.86464 5.54575,0 10.05944,4.33961 10.32471,9.86464 l 0.53882,0.8787 1.00305,-0.24455 c 4.11165,-3.70546 10.41175,-3.53966 14.28715,0.33159 3.92099,3.92098 4.04533,10.17135 0.31915,14.27886 l -0.2404,0.99061 c 0.17408,0.32329 0.50981,0.52639 0.88699,0.55126 5.52917,0.28184 9.86464,4.85771 9.86464,10.333 0,5.54161 -4.33547,10.04701 -9.86464,10.31643 l -0.87456,0.53882 0.2404,1.00304 c 3.70546,4.1158 3.53967,10.41591 -0.33158,14.28716 -3.92099,3.92513 -10.1755,4.04118 -14.27472,0.32744 l -1.00304,-0.24455 c -0.31501,0.17408 -0.5181,0.50981 -0.53883,0.88699 -0.28599,5.52917 -4.85356,9.86464 -10.33714,9.86464 -5.53747,0 -10.04702,-4.33961 -10.31643,-9.86464 l -0.53883,-0.87455"
       style="fill:#1478c7;fill-rule:nonzero;stroke:none" />
    <path
       id="path3125"
       d="m 206.59542,519.4199 -0.008,0 c 1.98536,-0.43934 3.7552,-1.46726 5.12713,-2.88478 10.1755,19.65053 30.70473,33.11286 54.30941,33.11286 21.21727,0 39.93107,-10.86768 50.89823,-27.33086 l -69.56645,-0.0332 c 0,-17.12635 13.88096,-29.99183 31.00731,-29.99183 l 79.60102,0.0373 c 0,17.12635 -13.87681,29.99597 -31.00316,29.99597 l -3.12104,0 c -11.64276,19.83291 -33.1999,33.19162 -57.81591,33.19162 -25.79728,0 -48.24142,-14.67676 -59.42825,-36.09713"
       style="fill:#a7a5a5;fill-rule:nonzero;stroke:none" />
    <path
       id="path3129"
       d="m 241.07727,480.65564 35.30133,0 1.69108,-15.2073 29.30379,0 c 5.52502,0 10.44077,-0.3606 14.82597,-0.99061 -9.36312,-21.77267 -31.01145,-37.06701 -56.17457,-37.06701 -21.553,0 -40.52378,11.2117 -51.40805,28.10594 -0.14506,-2.48274 -1.14811,-4.7168 -2.70656,-6.42031 12.19403,-16.69114 31.90259,-27.55882 54.11461,-27.55882 28.04791,0 52.11681,17.34601 62.08092,41.8584 23.45961,-5.23903 28.37535,-18.56873 28.37535,-18.56873 l 1.70766,0 0,41.68847 -82.46923,0 -35.15211,0 c 0.46008,-1.16884 0.71291,-2.44544 0.71291,-3.78007 0,-0.70876 -0.0746,-1.38851 -0.2031,-2.05996"
       style="fill:#a7a5a5;fill-rule:nonzero;stroke:none" />
  </g>
</svg>
